<svg width="1105" height="732" viewBox="0 0 1105 732" fill="none" xmlns="http://www.w3.org/2000/svg">
<path fill-rule="evenodd" clip-rule="evenodd" d="M38.5829 693.273C90.0166 744.699 173.399 744.699 224.833 693.273L621.492 296.67C672.935 245.233 672.935 161.831 621.491 110.394C570.058 58.9676 486.675 58.9676 435.241 110.394L38.5829 506.997C-12.8609 558.433 -12.8609 641.836 38.5829 693.273ZM483.275 621.449C534.709 672.875 618.091 672.875 669.525 621.449L1066.18 224.846C1117.63 173.409 1117.63 90.0063 1066.18 38.5698C1014.75 -12.8566 931.367 -12.8566 879.934 38.5698L483.275 435.173C431.831 486.609 431.831 570.012 483.275 621.449Z" fill="#63BABA"/>
</svg>
